<?xml version="1.0" standalone="no"?>
<!DOCTYPE svg PUBLIC "-//W3C//DTD SVG 1.1//EN" "http://www.w3.org/Graphics/SVG/1.1/DTD/svg11.dtd" >
<svg xmlns="http://www.w3.org/2000/svg" xmlns:xlink="http://www.w3.org/1999/xlink" version="1.1">
<metadata>
Created by FontForge 20170731 at Mon Aug 14 03:20:45 2023
 By Aleksey,,,
Copyright aztecwarrior28 2021
</metadata>
<defs>
<font id="PokemonEmerald" horiz-adv-x="2048" >
  <font-face 
    font-family="Pokemon Emerald"
    font-weight="400"
    font-stretch="normal"
    units-per-em="2048"
    panose-1="0 0 4 0 0 0 0 0 0 0"
    ascent="1638"
    descent="-410"
    x-height="2048"
    cap-height="3072"
    bbox="0 -682 2730 4096"
    underline-thickness="204"
    underline-position="205"
    unicode-range="U+0020-E069"
  />
<missing-glyph horiz-adv-x="2703" 
d="M2222 102h-2081l1041 1395zM102 141v2790l1041 -1395zM2261 141l-1040 1395l1040 1395v-2790zM1182 1575l-1041 1395h2081zM0 0h2363v3072h-2363v-3072z" />
    <glyph glyph-name=".notdef" horiz-adv-x="2703" 
d="M2222 102h-2081l1041 1395zM102 141v2790l1041 -1395zM2261 141l-1040 1395l1040 1395v-2790zM1182 1575l-1041 1395h2081zM0 0h2363v3072h-2363v-3072z" />
    <glyph glyph-name=".null" horiz-adv-x="0" 
 />
    <glyph glyph-name="nonmarkingreturn" horiz-adv-x="682" 
 />
    <glyph glyph-name="space" unicode=" " horiz-adv-x="1024" 
 />
    <glyph glyph-name="exclam" unicode="!" horiz-adv-x="1363" 
d="M682 0h340v342h-340v-342zM682 1024h340v2390h-340v-2390z" />
    <glyph glyph-name="quotedbl" unicode="&#x22;" 
d="M0 2390h342v340h-342v-340zM1024 2390h342v340h-342v-340zM342 2730h340v1024h-682v-682h342v-342zM1366 2730h340v1024h-682v-682h342v-342z" />
    <glyph glyph-name="numbersign" unicode="#" horiz-adv-x="3072" 
d="M1706 1366h-682v682h682v-682zM342 0h340v1024h684v-1024h340v1024h1024v342h-682v682h682v342h-340v1024h-342v-1024h-682v1024h-342v-1024h-1024v-342h682v-682h-682v-342h342v-1024z" />
    <glyph glyph-name="dollar" unicode="$" 
d="M1366 2048h340v1024h-340v-1024zM342 0h340v342h684v340h-684v342h684v342h-684v340h684v342h-684v1024h684v342h-1024v-2048h-342v-342h342v-342h-342v-340h342v-342z" />
    <glyph glyph-name="percent" unicode="%" 
d="M0 0h342v682h-342v-682zM682 0h1024v1366h-682v-342h342v-682h-342v682h-342v342h-340v-684h340v-682zM682 1366h342v682h-342v-682zM0 2048h682v342h-340v682h340v-682h342v-342h342v682h-342v684h-1024v-1366zM1366 2730h340v684h-340v-684z" />
    <glyph glyph-name="ampersand" unicode="&#x26;" horiz-adv-x="2387" 
d="M342 0h682v342h-682v-342zM1366 0h340v342h-340v-342zM0 342h342v682h-342v-682zM342 1024h340v342h-340v-342zM1024 342h342v1024h-342v-1024zM1366 1366h340v340h-340v-340zM682 1366h342v682h-342v-682zM342 2048h340v682h-340v-682zM1024 2048h342v682h-342v-682z
M682 2730h342v342h-342v-342z" />
    <glyph glyph-name="quotesingle" unicode="'" horiz-adv-x="1024" 
d="M0 2390h342v340h-342v-340zM342 2730h340v1024h-682v-682h342v-342z" />
    <glyph glyph-name="parenleft" unicode="(" horiz-adv-x="1363" 
d="M342 -682h340v340h-340v-340zM0 -342h342v3756h-342v-3756zM342 3414h340v340h-340v-340z" />
    <glyph glyph-name="parenright" unicode=")" horiz-adv-x="1363" 
d="M682 -682h340v340h-340v-340zM1022 -342h342v3756h-342v-3756zM682 3414h340v340h-340v-340z" />
    <glyph glyph-name="asterisk" unicode="*" 
d="M0 682h342v342h-342v-342zM1366 682h340v342h-340v-342zM0 2048h342v342h-342v-342zM682 682h342v342h342v342h340v340h-340v342h-342v342h-342v-342h-340v-342h-342v-340h342v-342h340v-342zM1366 2048h340v342h-340v-342z" />
    <glyph glyph-name="plus" unicode="+" 
d="M682 682h342v684h682v340h-682v684h-342v-684h-682v-340h682v-684z" />
    <glyph glyph-name="comma" unicode="," horiz-adv-x="1024" 
d="M0 -682h342v340h-342v-340zM342 -342h340v1024h-682v-682h342v-342z" />
    <glyph glyph-name="hyphen" unicode="-" 
d="M0 1366h1706v340h-1706v-340z" />
    <glyph glyph-name="period" unicode="." horiz-adv-x="1024" 
d="M0 0h682v682h-682v-682z" />
    <glyph glyph-name="slash" unicode="/" 
d="M0 0h342v682h-342v-682zM342 682h340v684h-340v-684zM682 1366h342v682h-342v-682zM1024 2048h342v682h-342v-682zM1366 2730h340v684h-340v-684z" />
    <glyph glyph-name="zero" unicode="0" 
d="M342 0h1024v342h-1024v-342zM0 342h342v2388h-342v-2388zM1366 342h340v2388h-340v-2388zM342 2730h1024v342h-1024v-342z" />
    <glyph glyph-name="one" unicode="1" 
d="M682 0h1024v342h-342v2730h-682v-342h340v-2388h-340v-342z" />
    <glyph glyph-name="two" unicode="2" 
d="M0 0h1706v342h-1364v340h-342v-682zM342 682h340v342h-340v-342zM682 1024h342v342h-342v-342zM1024 1366h342v340h-342v-340zM0 2390h342v340h-342v-340zM1366 1706h340v1024h-340v-1024zM342 2730h1024v342h-1024v-342z" />
    <glyph glyph-name="three" unicode="3" 
d="M342 0h1024v342h-1024v-342zM0 342h342v340h-342v-340zM1366 342h340v1024h-340v-1024zM682 1366h684v340h-684v-340zM0 2390h342v340h-342v-340zM1366 1706h340v1024h-340v-1024zM342 2730h1024v342h-1024v-342z" />
    <glyph glyph-name="four" unicode="4" 
d="M342 2390h340v340h-340v-340zM1024 0h342v682h340v342h-340v2048h-684v-342h342v-1706h-682v1366h-342v-1708h1024v-682z" />
    <glyph glyph-name="five" unicode="5" 
d="M0 0h1366v342h-1366v-342zM1366 342h340v1024h-340v-1024zM0 1366h1366v340h-1024v1024h1364v342h-1706v-1706z" />
    <glyph glyph-name="six" unicode="6" 
d="M342 0h1024v342h-1024v-342zM1366 342h340v1024h-340v-1024zM0 342h342v1024h1024v340h-1024v1024h-342v-2388zM1366 2390h340v340h-340v-340zM342 2730h1024v342h-1024v-342z" />
    <glyph glyph-name="seven" unicode="7" 
d="M682 0h342v682h-342v-682zM1024 682h342v1024h-342v-1024zM1366 1706h340v1366h-1706v-342h1366v-1024z" />
    <glyph glyph-name="eight" unicode="8" 
d="M342 0h1024v342h-1024v-342zM0 342h342v1024h-342v-1024zM1366 342h340v1024h-340v-1024zM342 1366h1024v340h-1024v-340zM0 1706h342v1024h-342v-1024zM1366 1706h340v1024h-340v-1024zM342 2730h1024v342h-1024v-342z" />
    <glyph glyph-name="nine" unicode="9" 
d="M342 0h1024v342h-1024v-342zM0 342h342v340h-342v-340zM0 1706h342v1024h-342v-1024zM1366 342h340v2388h-340v-1024h-1024v-340h1024v-1024zM342 2730h1024v342h-1024v-342z" />
    <glyph glyph-name="colon" unicode=":" horiz-adv-x="1024" 
d="M0 342h682v682h-682v-682zM0 1706h682v684h-682v-684z" />
    <glyph glyph-name="semicolon" unicode=";" horiz-adv-x="1024" 
d="M0 -342h342v342h-342v-342zM342 0h340v1024h-682v-682h342v-342zM0 1706h682v684h-682v-684z" />
    <glyph glyph-name="less" unicode="&#x3c;" 
d="M1366 -342h340v342h-340v-342zM1024 0h342v342h-342v-342zM682 342h342v340h-342v-340zM342 682h340v342h-340v-342zM0 1024h342v682h-342v-682zM342 1706h340v342h-340v-342zM682 2048h342v342h-342v-342zM1024 2390h342v340h-342v-340zM1366 2730h340v342h-340v-342z
" />
    <glyph glyph-name="equal" unicode="=" horiz-adv-x="2729" 
d="M682 682h1706v342h-1706v-342zM682 1706h1706v342h-1706v-342z" />
    <glyph glyph-name="greater" unicode="&#x3e;" 
d="M0 -342h342v342h-342v-342zM342 0h340v342h-340v-342zM682 342h342v340h-342v-340zM1024 682h342v342h-342v-342zM1366 1024h340v682h-340v-682zM1024 1706h342v342h-342v-342zM682 2048h342v342h-342v-342zM342 2390h340v340h-340v-340zM0 2730h342v342h-342v-342z" />
    <glyph glyph-name="question" unicode="?" 
d="M682 0h342v342h-342v-342zM682 1024h342v682h-342v-682zM1024 1706h342v342h-342v-342zM0 2390h342v682h-342v-682zM1366 2048h340v1024h-340v-1024zM342 3072h1024v342h-1024v-342z" />
    <glyph glyph-name="at" unicode="@" horiz-adv-x="3072" 
d="M682 0h2048v342h-2048v-342zM342 342h340v340h-340v-340zM1024 682h342v342h-342v-342zM682 1024h342v1024h-342v-1024zM0 682h342v1708h-342v-1708zM1706 682h684v342h-342v1366h-1024v-342h682v-682h-340v-342h340v-342zM2390 1024h340v1366h-340v-1366zM342 2390h340
v340h-340v-340zM2048 2390h342v340h-342v-340zM682 2730h1366v342h-1366v-342z" />
    <glyph glyph-name="A" unicode="A" 
d="M0 0h342v1024h1024v-1024h340v2730h-340v-1364h-1024v1364h-342v-2730zM342 2730h1024v342h-1024v-342z" />
    <glyph glyph-name="B" unicode="B" 
d="M1366 342h340v1024h-340v-1024zM1366 1706h340v1024h-340v-1024zM0 0h1366v342h-1024v1024h1024v340h-1024v1024h1024v342h-1366v-3072z" />
    <glyph glyph-name="C" unicode="C" 
d="M342 0h1024v342h-1024v-342zM1366 342h340v340h-340v-340zM0 342h342v2388h-342v-2388zM1366 2390h340v340h-340v-340zM342 2730h1024v342h-1024v-342z" />
    <glyph glyph-name="D" unicode="D" 
d="M1366 342h340v2388h-340v-2388zM0 0h1366v342h-1024v2388h1024v342h-1366v-3072z" />
    <glyph glyph-name="E" unicode="E" 
d="M0 0h1706v342h-1364v1024h1024v340h-1024v1024h1364v342h-1706v-3072z" />
    <glyph glyph-name="F" unicode="F" 
d="M0 0h342v1366h1024v340h-1024v1024h1364v342h-1706v-3072z" />
    <glyph glyph-name="G" unicode="G" 
d="M342 0h1024v342h-1024v-342zM1366 342h340v1024h-682v-342h342v-682zM0 342h342v2388h-342v-2388zM1366 2390h340v340h-340v-340zM342 2730h1024v342h-1024v-342z" />
    <glyph glyph-name="H" unicode="H" 
d="M0 0h342v1366h1024v-1366h340v3072h-340v-1366h-1024v1366h-342v-3072z" />
    <glyph glyph-name="I" unicode="I" 
d="M0 0h1706v342h-682v2388h682v342h-1706v-342h682v-2388h-682v-342z" />
    <glyph glyph-name="J" unicode="J" 
d="M342 0h1024v342h-1024v-342zM0 342h342v340h-342v-340zM1366 342h340v2730h-340v-2730z" />
    <glyph glyph-name="K" unicode="K" 
d="M1366 0h340v342h-340v-342zM1024 342h342v340h-342v-340zM682 682h342v342h-342v-342zM682 2048h342v342h-342v-342zM1024 2390h342v340h-342v-340zM0 0h342v1024h340v1024h-340v1024h-342v-3072zM1366 2730h340v342h-340v-342z" />
    <glyph glyph-name="L" unicode="L" 
d="M0 0h1706v342h-1364v2730h-342v-3072z" />
    <glyph glyph-name="M" unicode="M" 
d="M682 1366h342v682h-342v-682zM0 0h342v2048h340v682h-340v342h-342v-3072zM1366 0h340v3072h-340v-342h-342v-682h342v-2048z" />
    <glyph glyph-name="N" unicode="N" 
d="M682 1366h342v682h-342v-682zM0 0h342v2048h340v682h-340v342h-342v-3072zM1366 0h340v3072h-340v-1706h-342v-684h342v-682z" />
    <glyph glyph-name="O" unicode="O" 
d="M342 0h1024v342h-1024v-342zM0 342h342v2388h-342v-2388zM1366 342h340v2388h-340v-2388zM342 2730h1024v342h-1024v-342z" />
    <glyph glyph-name="P" unicode="P" 
d="M1366 1366h340v1364h-340v-1364zM0 0h342v1024h1024v342h-1024v1364h1024v342h-1366v-3072z" />
    <glyph glyph-name="Q" unicode="Q" 
d="M1706 0h342v342h-342v-342zM0 342h342v340h682v342h-682v1706h-342v-2388zM342 0h1024v342h340v2388h-340v-2048h-342v-340h-682v-342zM342 2730h1024v342h-1024v-342z" />
    <glyph glyph-name="R" unicode="R" 
d="M1366 0h340v342h-340v-342zM1024 342h342v340h-342v-340zM1366 1366h340v1364h-340v-1364zM0 0h342v1024h340v-342h342v342h342v342h-1024v1364h1024v342h-1366v-3072z" />
    <glyph glyph-name="S" unicode="S" 
d="M342 0h1024v342h-1024v-342zM0 342h342v340h-342v-340zM1366 342h340v1024h-340v-1024zM342 1366h1024v340h-1024v-340zM0 1706h342v1024h-342v-1024zM1366 2390h340v340h-340v-340zM342 2730h1024v342h-1024v-342z" />
    <glyph glyph-name="T" unicode="T" 
d="M682 0h342v2730h682v342h-1706v-342h682v-2730z" />
    <glyph glyph-name="U" unicode="U" 
d="M342 0h1024v342h-1024v-342zM0 342h342v2730h-342v-2730zM1366 342h340v2730h-340v-2730z" />
    <glyph glyph-name="V" unicode="V" 
d="M682 0h342v682h-342v-682zM342 682h340v684h-340v-684zM1024 682h342v684h-342v-684zM0 1366h342v1706h-342v-1706zM1366 1366h340v1706h-340v-1706z" />
    <glyph glyph-name="W" unicode="W" 
d="M682 1024h342v682h-342v-682zM0 0h342v342h340v682h-340v2048h-342v-3072zM1366 0h340v3072h-340v-2048h-342v-682h342v-342z" />
    <glyph glyph-name="X" unicode="X" 
d="M0 0h342v682h-342v-682zM1366 0h340v682h-340v-682zM342 682h340v684h-340v-684zM1024 682h342v684h-342v-684zM682 1366h342v340h-342v-340zM342 1706h340v684h-340v-684zM1024 1706h342v684h-342v-684zM0 2390h342v682h-342v-682zM1366 2390h340v682h-340v-682z" />
    <glyph glyph-name="Y" unicode="Y" 
d="M682 0h342v1366h-342v-1366zM342 1366h340v682h-340v-682zM1024 1366h342v682h-342v-682zM0 2048h342v1024h-342v-1024zM1366 2048h340v1024h-340v-1024z" />
    <glyph glyph-name="Z" unicode="Z" 
d="M0 0h1706v342h-1364v340h-342v-682zM342 682h340v684h-340v-684zM682 1366h342v340h-342v-340zM1024 1706h342v684h-342v-684zM1366 2390h340v682h-1706v-342h1366v-340z" />
    <glyph glyph-name="bracketleft" unicode="[" horiz-adv-x="1363" 
d="M0 -682h1024v340h-682v3756h682v340h-1024v-4436z" />
    <glyph glyph-name="backslash" unicode="\" 
d="M1366 0h340v682h-340v-682zM1024 682h342v684h-342v-684zM682 1366h342v682h-342v-682zM342 2048h340v682h-340v-682zM0 2730h342v684h-342v-684z" />
    <glyph glyph-name="bracketright" unicode="]" horiz-adv-x="1363" 
d="M0 -682h1024v4436h-1024v-340h682v-3756h-682v-340z" />
    <glyph glyph-name="asciicircum" unicode="^" 
d="M0 2390h342v340h-342v-340zM1366 2390h340v340h-340v-340zM342 2730h340v342h-340v-342zM1024 2730h342v342h-342v-342zM682 3072h342v342h-342v-342z" />
    <glyph glyph-name="underscore" unicode="_" 
d="M0 0h1706v342h-1706v-342z" />
    <glyph glyph-name="grave" unicode="`" 
d="M1364 3072h342v342h-342v-342zM682 3414h682v340h-682v-340z" />
    <glyph glyph-name="a" unicode="a" 
d="M0 342h342v682h-342v-682zM342 0h1364v1706h-340v-340h-1024v-342h1024v-682h-1024v-342zM342 1706h1024v342h-1024v-342z" />
    <glyph glyph-name="b" unicode="b" 
d="M1366 342h340v1364h-340v-1364zM0 0h1366v342h-1024v1364h1024v342h-1024v1024h-342v-3072z" />
    <glyph glyph-name="c" unicode="c" 
d="M342 0h1024v342h-1024v-342zM1366 342h340v340h-340v-340zM0 342h342v1364h-342v-1364zM1366 1366h340v340h-340v-340zM342 1706h1024v342h-1024v-342z" />
    <glyph glyph-name="d" unicode="d" 
d="M0 342h342v1364h-342v-1364zM342 0h1364v3072h-340v-1024h-1024v-342h1024v-1364h-1024v-342z" />
    <glyph glyph-name="e" unicode="e" 
d="M342 0h1024v342h-1024v-342zM1366 342h340v340h-340v-340zM0 342h342v682h1364v682h-340v-340h-1024v340h-342v-1364zM342 1706h1024v342h-1024v-342z" />
    <glyph glyph-name="f" unicode="f" 
d="M682 0h342v1706h682v342h-682v682h-342v-682h-682v-342h682v-1706zM1024 2730h682v342h-682v-342z" />
    <glyph glyph-name="g" unicode="g" 
d="M342 -682h1024v340h-1024v-340zM0 -342h342v342h-342v-342zM0 682h342v1024h-342v-1024zM1366 -342h340v2048h-340v-1024h-1024v-340h1024v-684zM342 1706h1024v342h-1024v-342z" />
    <glyph glyph-name="h" unicode="h" 
d="M1366 0h340v1706h-340v-1706zM0 0h342v1706h1024v342h-1024v1024h-342v-3072z" />
    <glyph glyph-name="i" unicode="i" horiz-adv-x="1363" 
d="M682 0h340v2048h-340v-2048zM682 2730h340v342h-340v-342z" />
    <glyph glyph-name="j" unicode="j" horiz-adv-x="1705" 
d="M342 -682h682v340h-682v-340zM0 -342h342v342h-342v-342zM1024 -342h342v2390h-342v-2390zM1024 2730h342v342h-342v-342z" />
    <glyph glyph-name="k" unicode="k" 
d="M1366 0h340v342h-340v-342zM1024 342h342v340h-342v-340zM1024 1366h342v340h-342v-340zM1366 1706h340v342h-340v-342zM0 0h342v682h682v684h-342v-342h-340v2048h-342v-3072z" />
    <glyph glyph-name="l" unicode="l" horiz-adv-x="1363" 
d="M682 0h340v3072h-340v-3072z" />
    <glyph glyph-name="m" unicode="m" 
d="M1366 0h340v1706h-340v-1706zM0 0h342v1706h340v-1706h342v1706h342v342h-1366v-2048z" />
    <glyph glyph-name="n" unicode="n" 
d="M1366 0h340v1706h-340v-1706zM0 0h342v1706h1024v342h-1366v-2048z" />
    <glyph glyph-name="o" unicode="o" 
d="M342 0h1024v342h-1024v-342zM0 342h342v1364h-342v-1364zM1366 342h340v1364h-340v-1364zM342 1706h1024v342h-1024v-342z" />
    <glyph glyph-name="p" unicode="p" 
d="M1366 682h340v1024h-340v-1024zM0 -682h342v1024h1024v340h-1024v1024h1024v342h-1366v-2730z" />
    <glyph glyph-name="q" unicode="q" 
d="M0 682h342v1024h-342v-1024zM1366 -682h340v2730h-1364v-342h1024v-1024h-1024v-340h1024v-1024z" />
    <glyph glyph-name="r" unicode="r" horiz-adv-x="1705" 
d="M0 0h342v1366h340v340h-340v342h-342v-2048zM682 1706h684v342h-684v-342z" />
    <glyph glyph-name="s" unicode="s" 
d="M342 0h1024v342h-1024v-342zM0 342h342v340h-342v-340zM1366 342h340v340h-340v-340zM682 682h684v342h-684v-342zM342 1024h340v342h-340v-342zM0 1366h342v340h-342v-340zM1366 1366h340v340h-340v-340zM342 1706h1024v342h-1024v-342z" />
    <glyph glyph-name="t" unicode="t" 
d="M1024 0h682v342h-682v-342zM682 342h342v1364h682v342h-682v682h-342v-682h-682v-342h682v-1364z" />
    <glyph glyph-name="u" unicode="u" 
d="M0 342h342v1706h-342v-1706zM342 0h1364v2048h-340v-1706h-1024v-342z" />
    <glyph glyph-name="v" unicode="v" 
d="M682 0h342v342h-342v-342zM342 342h340v682h-340v-682zM1024 342h342v682h-342v-682zM0 1024h342v1024h-342v-1024zM1366 1024h340v1024h-340v-1024z" />
    <glyph glyph-name="w" unicode="w" 
d="M342 0h340v342h-340v-342zM1024 0h342v342h-342v-342zM0 342h342v1706h-342v-1706zM682 342h342v1706h-342v-1706zM1366 342h340v1706h-340v-1706z" />
    <glyph glyph-name="x" unicode="x" 
d="M0 0h342v342h-342v-342zM1366 0h340v342h-340v-342zM342 342h340v340h-340v-340zM1024 342h342v340h-342v-340zM682 682h342v684h-342v-684zM342 1366h340v340h-340v-340zM1024 1366h342v340h-342v-340zM0 1706h342v342h-342v-342zM1366 1706h340v342h-340v-342z" />
    <glyph glyph-name="y" unicode="y" 
d="M342 -682h1024v340h-1024v-340zM0 -342h342v342h-342v-342zM0 682h342v1366h-342v-1366zM1366 -342h340v2390h-340v-1366h-1024v-340h1024v-684z" />
    <glyph glyph-name="z" unicode="z" 
d="M0 0h1706v342h-1364v340h-342v-682zM342 682h340v342h-340v-342zM682 1024h342v342h-342v-342zM1024 1366h342v340h340v342h-1706v-342h1024v-340z" />
    <glyph glyph-name="braceleft" unicode="{" horiz-adv-x="1363" 
d="M682 -682h342v340h-342v-340zM342 -342h340v2048h-340v-2048zM0 1706h342v342h-342v-342zM342 2048h340v1366h-340v-1366zM682 3414h342v340h-342v-340z" />
    <glyph glyph-name="bar" unicode="|" horiz-adv-x="1363" 
d="M682 -342h340v3756h-340v-3756z" />
    <glyph glyph-name="braceright" unicode="}" horiz-adv-x="1363" 
d="M0 -682h342v340h-342v-340zM342 -342h340v2048h-340v-2048zM682 1706h342v342h-342v-342zM342 2048h340v1366h-340v-1366zM0 3414h342v340h-342v-340z" />
    <glyph glyph-name="asciitilde" unicode="~" horiz-adv-x="2387" 
d="M0 1366h342v340h-342v-340zM1024 1366h682v340h-682v-340zM342 1706h682v342h-682v-342zM1706 1706h342v342h-342v-342z" />
    <glyph glyph-name="uniA0" unicode="&#xa0;" horiz-adv-x="1024" 
 />
    <glyph glyph-name="exclamdown" unicode="&#xa1;" horiz-adv-x="1363" 
d="M682 -682h340v2388h-340v-2388zM682 2390h340v340h-340v-340z" />
    <glyph glyph-name="section" unicode="&#xa7;" 
d="M342 0h1024v342h-1024v-342zM0 342h342v340h-342v-340zM1366 342h340v340h-340v-340zM682 682h684v342h-684v-342zM342 1024h340v342h-340v-342zM1366 1024h340v682h-340v-682zM0 1366h342v682h-342v-682zM1024 1706h342v342h-342v-342zM342 2048h682v342h-682v-342z
M0 2390h342v340h-342v-340zM1366 2390h340v340h-340v-340zM342 2730h1024v342h-1024v-342z" />
    <glyph glyph-name="dieresis" unicode="&#xa8;" 
d="M0 3414h342v340h-342v-340zM1366 3414h340v340h-340v-340z" />
    <glyph glyph-name="ordfeminine" unicode="&#xaa;" 
d="M342 2048h682v342h-682v-342zM1366 2048h340v342h-340v-342zM0 2390h342v1024h-342v-1024zM1024 2390h342v1364h-1024v-340h682v-1024z" />
    <glyph glyph-name="guillemotleft" unicode="&#xab;" 
d="M682 -342h342v684h-342v-684zM1366 -342h340v684h-340v-684zM342 342h340v682h-340v-682zM1024 342h342v682h-342v-682zM0 1024h342v682h-342v-682zM682 1024h342v682h-342v-682zM342 1706h340v684h-340v-684zM1024 1706h342v684h-342v-684zM682 2390h342v682h-342v-682z
M1366 2390h340v682h-340v-682z" />
    <glyph glyph-name="plusminus" unicode="&#xb1;" 
d="M0 0h1706v342h-1706v-342zM682 682h342v684h682v340h-682v684h-342v-684h-682v-340h682v-684z" />
    <glyph glyph-name="uniB2" unicode="&#xb2;" horiz-adv-x="1705" 
d="M0 1706h1366v342h-684v342h-340v-342h-342v-342zM682 2390h342v340h-342v-340zM0 2730h342v342h-342v-342zM1024 2730h342v342h-342v-342zM342 3072h682v342h-682v-342z" />
    <glyph glyph-name="uniB3" unicode="&#xb3;" horiz-adv-x="1705" 
d="M342 1706h682v342h-682v-342zM0 2048h342v342h-342v-342zM1024 2048h342v342h-342v-342zM682 2390h342v340h-342v-340zM0 2730h342v342h-342v-342zM1024 2730h342v342h-342v-342zM342 3072h682v342h-682v-342z" />
    <glyph glyph-name="acute" unicode="&#xb4;" 
d="M682 3072h340v342h-340v-342zM1022 3414h684v340h-684v-340z" />
    <glyph glyph-name="mu" unicode="&#xb5;" 
d="M0 -682h342v682h682v342h-682v1706h-342v-2730zM1366 0h340v2048h-340v-1366h-342v-340h342v-342z" />
    <glyph glyph-name="paragraph" unicode="&#xb6;" 
d="M682 0h342v2730h342v-2730h340v3072h-1364v-342h-342v-682h342v-342h340v-1706z" />
    <glyph glyph-name="periodcentered" unicode="&#xb7;" horiz-adv-x="1024" 
d="M0 1024h682v682h-682v-682z" />
    <glyph glyph-name="cedilla" unicode="&#xb8;" 
d="M682 -682h682v340h-682v-340zM1364 -342h342v342h-342v-342zM1022 0h342v342h-342v-342z" />
    <glyph glyph-name="uniB9" unicode="&#xb9;" horiz-adv-x="1363" 
d="M0 1706h1024v342h-342v1366h-340v-342h-342v-342h342v-682h-342v-342z" />
    <glyph glyph-name="ordmasculine" unicode="&#xba;" 
d="M342 2048h1024v342h-1024v-342zM0 2390h342v1024h-342v-1024zM1366 2390h340v1024h-340v-1024zM342 3414h1024v340h-1024v-340z" />
    <glyph glyph-name="guillemotright" unicode="&#xbb;" 
d="M0 -342h342v684h-342v-684zM682 -342h342v684h-342v-684zM342 342h340v682h-340v-682zM1024 342h342v682h-342v-682zM682 1024h342v682h-342v-682zM1366 1024h340v682h-340v-682zM342 1706h340v684h-340v-684zM1024 1706h342v684h-342v-684zM0 2390h342v682h-342v-682z
M682 2390h342v682h-342v-682z" />
    <glyph glyph-name="onequarter" unicode="&#xbc;" horiz-adv-x="2729" 
d="M2048 -682h342v1364h-342v-1364zM1366 -682h340v1364h342v342h-342v1024h-340v-2730zM2048 1024h342v1024h-342v-1024zM682 2730h-340v684h340v-684zM0 1024h342v1366h682v1364h-1024v-2730z" />
    <glyph glyph-name="onehalf" unicode="&#xbd;" horiz-adv-x="2729" 
d="M2048 -682h342v2730h-342v-1366h-342v-682h342v-682zM1024 -682h342v1364h340v684h-340v2388h-342v-340h-682v340h-342v-2730h342v2048h682v-3754z" />
    <glyph glyph-name="questiondown" unicode="&#xbf;" 
d="M342 -682h1024v340h-1024v-340zM1366 -342h340v684h-340v-684zM0 -342h342v1024h-342v-1024zM342 682h340v342h-340v-342zM682 1024h342v682h-342v-682zM682 2390h342v340h-342v-340z" />
    <glyph glyph-name="Agrave" unicode="&#xc0;" 
d="M0 0h342v1024h1024v-1024h340v2730h-340v-1364h-1024v1364h-342v-2730zM342 2730h1024v342h-1024v-342zM1024 3414h342v340h-342v-340zM342 3754h682v342h-682v-342z" />
    <glyph glyph-name="Aacute" unicode="&#xc1;" 
d="M0 0h342v1024h1024v-1024h340v2730h-340v-1364h-1024v1364h-342v-2730zM342 2730h1024v342h-1024v-342zM342 3414h340v340h-340v-340zM682 3754h684v342h-684v-342z" />
    <glyph glyph-name="Acircumflex" unicode="&#xc2;" 
d="M0 0h342v1024h1024v-1024h340v2730h-340v-1364h-1024v1364h-342v-2730zM342 2730h1024v342h-1024v-342zM342 3414h340v340h-340v-340zM1024 3414h342v340h-342v-340zM682 3754h342v342h-342v-342z" />
    <glyph glyph-name="Atilde" unicode="&#xc3;" 
d="M0 0h342v1024h1024v-1024h340v2730h-340v-1364h-1024v1364h-342v-2730zM342 2730h1024v342h-1024v-342zM0 3414h342v340h-342v-340zM1024 3414h682v340h-682v-340zM342 3754h682v342h-682v-342zM1706 3754h342v342h-342v-342z" />
    <glyph glyph-name="Adieresis" unicode="&#xc4;" 
d="M0 0h342v1024h1024v-1024h340v2730h-340v-1364h-1024v1364h-342v-2730zM342 2730h1024v342h-1024v-342zM0 3754h342v342h-342v-342zM1366 3754h340v342h-340v-342z" />
    <glyph glyph-name="AE" unicode="&#xc6;" horiz-adv-x="2729" 
d="M0 0h342v1024h682v-1024h1366v342h-1024v1024h682v340h-682v1024h1024v342h-2048v-342h682v-1364h-682v1364h-342v-2730z" />
    <glyph glyph-name="Ccedilla" unicode="&#xc7;" 
d="M342 -682h682v340h-682v-340zM1024 -342h342v342h-342v-342zM682 0h342v342h342v340h-1024v-340h340v-342zM1366 682h340v342h-340v-342zM0 682h342v2048h-342v-2048zM1366 2390h340v340h-340v-340zM342 2730h1024v342h-1024v-342z" />
    <glyph glyph-name="Egrave" unicode="&#xc8;" 
d="M0 0h1706v342h-1364v1024h1024v340h-1024v1024h1364v342h-1706v-3072zM1024 3414h342v340h-342v-340zM342 3754h682v342h-682v-342z" />
    <glyph glyph-name="Eacute" unicode="&#xc9;" 
d="M0 0h1706v342h-1364v1024h1024v340h-1024v1024h1364v342h-1706v-3072zM342 3414h340v340h-340v-340zM682 3754h684v342h-684v-342z" />
    <glyph glyph-name="Ecircumflex" unicode="&#xca;" 
d="M0 0h1706v342h-1364v1024h1024v340h-1024v1024h1364v342h-1706v-3072zM342 3414h340v340h-340v-340zM1024 3414h342v340h-342v-340zM682 3754h342v342h-342v-342z" />
    <glyph glyph-name="Edieresis" unicode="&#xcb;" 
d="M0 0h1706v342h-1364v1024h1024v340h-1024v1024h1364v342h-1706v-3072zM0 3754h342v342h-342v-342zM1366 3754h340v342h-340v-342z" />
    <glyph glyph-name="Igrave" unicode="&#xcc;" 
d="M0 0h1706v342h-682v2388h682v342h-1706v-342h682v-2388h-682v-342zM1024 3414h342v340h-342v-340zM342 3754h682v342h-682v-342z" />
    <glyph glyph-name="Iacute" unicode="&#xcd;" 
d="M0 0h1706v342h-682v2388h682v342h-1706v-342h682v-2388h-682v-342zM342 3414h340v340h-340v-340zM682 3754h684v342h-684v-342z" />
    <glyph glyph-name="Icircumflex" unicode="&#xce;" 
d="M0 0h1706v342h-682v2388h682v342h-1706v-342h682v-2388h-682v-342zM342 3414h340v340h-340v-340zM1024 3414h342v340h-342v-340zM682 3754h342v342h-342v-342z" />
    <glyph glyph-name="Idieresis" unicode="&#xcf;" 
d="M0 0h1706v342h-682v2388h682v342h-1706v-342h682v-2388h-682v-342zM0 3754h342v342h-342v-342zM1366 3754h340v342h-340v-342z" />
    <glyph glyph-name="Ntilde" unicode="&#xd1;" 
d="M682 1366h342v682h-342v-682zM0 0h342v2048h340v682h-340v342h-342v-3072zM1366 0h340v3072h-340v-1706h-342v-684h342v-682zM0 3414h342v340h-342v-340zM1024 3414h682v340h-682v-340zM342 3754h682v342h-682v-342zM1706 3754h342v342h-342v-342z" />
    <glyph glyph-name="Ograve" unicode="&#xd2;" 
d="M342 0h1024v342h-1024v-342zM0 342h342v2388h-342v-2388zM1366 342h340v2388h-340v-2388zM342 2730h1024v342h-1024v-342zM1024 3414h342v340h-342v-340zM342 3754h682v342h-682v-342z" />
    <glyph glyph-name="Oacute" unicode="&#xd3;" 
d="M342 0h1024v342h-1024v-342zM0 342h342v2388h-342v-2388zM1366 342h340v2388h-340v-2388zM342 2730h1024v342h-1024v-342zM342 3414h340v340h-340v-340zM682 3754h684v342h-684v-342z" />
    <glyph glyph-name="Ocircumflex" unicode="&#xd4;" 
d="M342 0h1024v342h-1024v-342zM0 342h342v2388h-342v-2388zM1366 342h340v2388h-340v-2388zM342 2730h1024v342h-1024v-342zM342 3414h340v340h-340v-340zM1024 3414h342v340h-342v-340zM682 3754h342v342h-342v-342z" />
    <glyph glyph-name="Otilde" unicode="&#xd5;" 
d="M342 0h1024v342h-1024v-342zM0 342h342v2388h-342v-2388zM1366 342h340v2388h-340v-2388zM342 2730h1024v342h-1024v-342zM0 3414h342v340h-342v-340zM1024 3414h682v340h-682v-340zM342 3754h682v342h-682v-342zM1706 3754h342v342h-342v-342z" />
    <glyph glyph-name="Odieresis" unicode="&#xd6;" 
d="M342 0h1024v342h-1024v-342zM0 342h342v2388h-342v-2388zM1366 342h340v2388h-340v-2388zM342 2730h1024v342h-1024v-342zM0 3754h342v342h-342v-342zM1366 3754h340v342h-340v-342z" />
    <glyph glyph-name="multiply" unicode="&#xd7;" horiz-adv-x="2387" 
d="M0 0h342v342h-342v-342zM1706 0h342v342h-342v-342zM342 342h340v340h-340v-340zM1366 342h340v340h-340v-340zM682 682h684v684h-684v-684zM342 1366h340v340h-340v-340zM1366 1366h340v340h-340v-340zM0 1706h342v342h-342v-342zM1706 1706h342v342h-342v-342z" />
    <glyph glyph-name="Ugrave" unicode="&#xd9;" 
d="M342 0h1024v342h-1024v-342zM0 342h342v2730h-342v-2730zM1366 342h340v2730h-340v-2730zM1024 3414h342v340h-342v-340zM342 3754h682v342h-682v-342z" />
    <glyph glyph-name="Uacute" unicode="&#xda;" 
d="M342 0h1024v342h-1024v-342zM0 342h342v2730h-342v-2730zM1366 342h340v2730h-340v-2730zM342 3414h340v340h-340v-340zM682 3754h684v342h-684v-342z" />
    <glyph glyph-name="Ucircumflex" unicode="&#xdb;" 
d="M342 0h1024v342h-1024v-342zM0 342h342v2730h-342v-2730zM1366 342h340v2730h-340v-2730zM342 3414h340v340h-340v-340zM1024 3414h342v340h-342v-340zM682 3754h342v342h-342v-342z" />
    <glyph glyph-name="Udieresis" unicode="&#xdc;" 
d="M342 0h1024v342h-1024v-342zM0 342h342v2730h-342v-2730zM1366 342h340v2730h-340v-2730zM0 3754h342v342h-342v-342zM1366 3754h340v342h-340v-342z" />
    <glyph glyph-name="Yacute" unicode="&#xdd;" 
d="M682 0h342v1366h-342v-1366zM342 1366h340v682h-340v-682zM1024 1366h342v682h-342v-682zM0 2048h342v1024h-342v-1024zM1366 2048h340v1024h-340v-1024zM342 3414h340v340h-340v-340zM682 3754h684v342h-684v-342z" />
    <glyph glyph-name="germandbls" unicode="&#xdf;" 
d="M1024 342h342v340h-342v-340zM1366 682h340v342h-340v-342zM1024 1024h342v342h-342v-342zM1024 1706h342v1024h-342v-1024zM0 0h342v1366h682v340h-682v1024h682v342h-1024v-3072z" />
    <glyph glyph-name="agrave" unicode="&#xe0;" 
d="M0 342h342v682h-342v-682zM342 0h1364v1706h-340v-340h-1024v-342h1024v-682h-1024v-342zM342 1706h1024v342h-1024v-342zM1024 2390h342v340h-342v-340zM342 2730h682v342h-682v-342z" />
    <glyph glyph-name="aacute" unicode="&#xe1;" 
d="M0 342h342v682h-342v-682zM342 0h1364v1706h-340v-340h-1024v-342h1024v-682h-1024v-342zM342 1706h1024v342h-1024v-342zM342 2390h340v340h-340v-340zM682 2730h684v342h-684v-342z" />
    <glyph glyph-name="acircumflex" unicode="&#xe2;" 
d="M0 342h342v682h-342v-682zM342 0h1364v1706h-340v-340h-1024v-342h1024v-682h-1024v-342zM342 1706h1024v342h-1024v-342zM342 2390h340v340h-340v-340zM1024 2390h342v340h-342v-340zM682 2730h342v342h-342v-342z" />
    <glyph glyph-name="atilde" unicode="&#xe3;" 
d="M0 342h342v682h-342v-682zM342 0h1364v1706h-340v-340h-1024v-342h1024v-682h-1024v-342zM342 1706h1024v342h-1024v-342zM0 2390h342v340h-342v-340zM1024 2390h682v340h-682v-340zM342 2730h682v342h-682v-342zM1706 2730h342v342h-342v-342z" />
    <glyph glyph-name="adieresis" unicode="&#xe4;" 
d="M0 342h342v682h-342v-682zM342 0h1364v1706h-340v-340h-1024v-342h1024v-682h-1024v-342zM342 1706h1024v342h-1024v-342zM0 2730h342v342h-342v-342zM1366 2730h340v342h-340v-342z" />
    <glyph glyph-name="ae" unicode="&#xe6;" horiz-adv-x="2729" 
d="M342 0h682v342h-682v-342zM1366 0h682v342h-682v-342zM2048 342h342v340h-342v-340zM0 342h342v682h-342v-682zM1024 342h342v682h1024v682h-342v-340h-682v340h-342v-340h-682v-342h682v-682zM342 1706h682v342h-682v-342zM1366 1706h682v342h-682v-342z" />
    <glyph glyph-name="ccedilla" unicode="&#xe7;" 
d="M342 -682h682v340h-682v-340zM1024 -342h342v342h-342v-342zM682 0h342v342h342v340h-1024v-340h340v-342zM1366 682h340v342h-340v-342zM0 682h342v1024h-342v-1024zM1366 1366h340v340h-340v-340zM342 1706h1024v342h-1024v-342z" />
    <glyph glyph-name="egrave" unicode="&#xe8;" 
d="M342 0h1024v342h-1024v-342zM1366 342h340v340h-340v-340zM0 342h342v682h1364v682h-340v-340h-1024v340h-342v-1364zM342 1706h1024v342h-1024v-342zM1024 2390h342v340h-342v-340zM342 2730h682v342h-682v-342z" />
    <glyph glyph-name="eacute" unicode="&#xe9;" 
d="M342 0h1024v342h-1024v-342zM1366 342h340v340h-340v-340zM0 342h342v682h1364v682h-340v-340h-1024v340h-342v-1364zM342 1706h1024v342h-1024v-342zM342 2390h340v340h-340v-340zM682 2730h684v342h-684v-342z" />
    <glyph glyph-name="ecircumflex" unicode="&#xea;" 
d="M342 0h1024v342h-1024v-342zM1366 342h340v340h-340v-340zM0 342h342v682h1364v682h-340v-340h-1024v340h-342v-1364zM342 1706h1024v342h-1024v-342zM342 2390h340v340h-340v-340zM1024 2390h342v340h-342v-340zM682 2730h342v342h-342v-342z" />
    <glyph glyph-name="edieresis" unicode="&#xeb;" 
d="M342 0h1024v342h-1024v-342zM1366 342h340v340h-340v-340zM0 342h342v682h1364v682h-340v-340h-1024v340h-342v-1364zM342 1706h1024v342h-1024v-342zM0 2730h342v342h-342v-342zM1366 2730h340v342h-340v-342z" />
    <glyph glyph-name="igrave" unicode="&#xec;" 
d="M1022 0h342v2048h-342v-2048zM1364 2390h342v340h-342v-340zM682 2730h682v342h-682v-342z" />
    <glyph glyph-name="iacute" unicode="&#xed;" 
d="M1022 0h342v2048h-342v-2048zM682 2390h340v340h-340v-340zM1022 2730h684v342h-684v-342z" />
    <glyph glyph-name="icircumflex" unicode="&#xee;" 
d="M1022 0h342v2048h-342v-2048zM682 2390h340v340h-340v-340zM1364 2390h342v340h-342v-340zM1022 2730h342v342h-342v-342z" />
    <glyph glyph-name="idieresis" unicode="&#xef;" 
d="M682 0h342v2048h-342v-2048zM0 2730h342v342h-342v-342zM1366 2730h340v342h-340v-342z" />
    <glyph glyph-name="ntilde" unicode="&#xf1;" 
d="M1366 0h340v1706h-340v-1706zM0 0h342v1706h1024v342h-1366v-2048zM0 2390h342v340h-342v-340zM1024 2390h682v340h-682v-340zM342 2730h682v342h-682v-342zM1706 2730h342v342h-342v-342z" />
    <glyph glyph-name="ograve" unicode="&#xf2;" 
d="M342 0h1024v342h-1024v-342zM0 342h342v1364h-342v-1364zM1366 342h340v1364h-340v-1364zM342 1706h1024v342h-1024v-342zM1024 2390h342v340h-342v-340zM342 2730h682v342h-682v-342z" />
    <glyph glyph-name="oacute" unicode="&#xf3;" 
d="M342 0h1024v342h-1024v-342zM0 342h342v1364h-342v-1364zM1366 342h340v1364h-340v-1364zM342 1706h1024v342h-1024v-342zM342 2390h340v340h-340v-340zM682 2730h684v342h-684v-342z" />
    <glyph glyph-name="ocircumflex" unicode="&#xf4;" 
d="M342 0h1024v342h-1024v-342zM0 342h342v1364h-342v-1364zM1366 342h340v1364h-340v-1364zM342 1706h1024v342h-1024v-342zM342 2390h340v340h-340v-340zM1024 2390h342v340h-342v-340zM682 2730h342v342h-342v-342z" />
    <glyph glyph-name="otilde" unicode="&#xf5;" 
d="M342 0h1024v342h-1024v-342zM0 342h342v1364h-342v-1364zM1366 342h340v1364h-340v-1364zM342 1706h1024v342h-1024v-342zM0 2390h342v340h-342v-340zM1024 2390h682v340h-682v-340zM342 2730h682v342h-682v-342zM1706 2730h342v342h-342v-342z" />
    <glyph glyph-name="odieresis" unicode="&#xf6;" 
d="M342 0h1024v342h-1024v-342zM0 342h342v1364h-342v-1364zM1366 342h340v1364h-340v-1364zM342 1706h1024v342h-1024v-342zM0 2730h342v342h-342v-342zM1366 2730h340v342h-340v-342z" />
    <glyph glyph-name="divide" unicode="&#xf7;" 
d="M682 682h342v342h-342v-342zM0 1366h1706v340h-1706v-340zM682 2048h342v342h-342v-342z" />
    <glyph glyph-name="ugrave" unicode="&#xf9;" 
d="M0 342h342v1706h-342v-1706zM342 0h1364v2048h-340v-1706h-1024v-342zM1024 2390h342v340h-342v-340zM342 2730h682v342h-682v-342z" />
    <glyph glyph-name="uacute" unicode="&#xfa;" 
d="M0 342h342v1706h-342v-1706zM342 0h1364v2048h-340v-1706h-1024v-342zM342 2390h340v340h-340v-340zM682 2730h684v342h-684v-342z" />
    <glyph glyph-name="ucircumflex" unicode="&#xfb;" 
d="M0 342h342v1706h-342v-1706zM342 0h1364v2048h-340v-1706h-1024v-342zM342 2390h340v340h-340v-340zM1024 2390h342v340h-342v-340zM682 2730h342v342h-342v-342z" />
    <glyph glyph-name="udieresis" unicode="&#xfc;" 
d="M0 342h342v1706h-342v-1706zM342 0h1364v2048h-340v-1706h-1024v-342zM0 2730h342v342h-342v-342zM1366 2730h340v342h-340v-342z" />
    <glyph glyph-name="yacute" unicode="&#xfd;" 
d="M342 -682h1024v340h-1024v-340zM0 -342h342v342h-342v-342zM0 682h342v1366h-342v-1366zM1366 -342h340v2390h-340v-1366h-1024v-340h1024v-684zM342 2390h340v340h-340v-340zM682 2730h684v342h-684v-342z" />
    <glyph glyph-name="ydieresis" unicode="&#xff;" 
d="M342 -682h1024v340h-1024v-340zM0 -342h342v342h-342v-342zM0 682h342v1366h-342v-1366zM1366 -342h340v2390h-340v-1366h-1024v-340h1024v-684zM0 2730h342v342h-342v-342zM1366 2730h340v342h-340v-342z" />
    <glyph glyph-name="dotlessi" unicode="&#x131;" horiz-adv-x="1363" 
d="M682 0h340v2048h-340v-2048z" />
    <glyph glyph-name="OE" unicode="&#x152;" horiz-adv-x="2729" 
d="M342 0h682v342h-682v-342zM0 342h342v2388h-342v-2388zM342 2730h682v342h-682v-342zM1366 0h1024v342h-684v1024h684v340h-684v1024h684v342h-1024v-342h-342v-340h342v-1708h-342v-340h342v-342z" />
    <glyph glyph-name="oe" unicode="&#x153;" horiz-adv-x="2729" 
d="M342 0h682v342h-682v-342zM1366 0h682v342h-682v-342zM2048 342h342v340h-342v-340zM0 342h342v1364h-342v-1364zM1024 342h342v682h1024v682h-342v-340h-682v340h-342v-1364zM342 1706h682v342h-682v-342zM1366 1706h682v342h-682v-342z" />
    <glyph glyph-name="Ydieresis" unicode="&#x178;" 
d="M682 0h342v1366h-342v-1366zM342 1366h340v682h-340v-682zM1024 1366h342v682h-342v-682zM0 2048h342v1024h-342v-1024zM1366 2048h340v1024h-340v-1024zM0 3754h342v342h-342v-342zM1366 3754h340v342h-340v-342z" />
    <glyph glyph-name="circumflex" unicode="&#x2c6;" 
d="M682 3072h340v342h-340v-342zM1364 3072h342v342h-342v-342zM1022 3414h342v340h-342v-340z" />
    <glyph glyph-name="tilde" unicode="&#x2dc;" 
d="M0 3072h342v342h-342v-342zM1024 3072h682v342h-682v-342zM342 3414h682v340h-682v-340zM1706 3414h342v340h-342v-340z" />
    <glyph glyph-name="uni3BC" unicode="&#x3bc;" 
d="M0 -682h342v682h682v342h-682v1706h-342v-2730zM1366 0h340v2048h-340v-1366h-342v-340h342v-342z" />
    <glyph glyph-name="uni1D49" unicode="&#x1d49;" horiz-adv-x="1705" 
d="M342 2048h1024v342h-1024v-342zM0 2390h342v340h1024v684h-342v-342h-682v342h-342v-1024zM342 3414h682v340h-682v-340z" />
    <glyph glyph-name="quoteleft" unicode="&#x2018;" horiz-adv-x="1024" 
d="M0 2390h682v682h-340v342h-342v-1024zM342 3414h340v340h-340v-340z" />
    <glyph glyph-name="quoteright" unicode="&#x2019;" horiz-adv-x="1024" 
d="M0 2390h342v340h-342v-340zM342 2730h340v1024h-682v-682h342v-342z" />
    <glyph glyph-name="quotesinglbase" unicode="&#x201a;" horiz-adv-x="1024" 
d="M0 -682h342v340h-342v-340zM342 -342h340v1024h-682v-682h342v-342z" />
    <glyph glyph-name="quotedblleft" unicode="&#x201c;" 
d="M0 2390h682v682h-340v342h-342v-1024zM1024 2390h682v682h-340v342h-342v-1024zM342 3414h340v340h-340v-340zM1366 3414h340v340h-340v-340z" />
    <glyph glyph-name="quotedblright" unicode="&#x201d;" 
d="M0 2390h342v340h-342v-340zM1024 2390h342v340h-342v-340zM342 2730h340v1024h-682v-682h342v-342zM1366 2730h340v1024h-682v-682h342v-342z" />
    <glyph glyph-name="quotedblbase" unicode="&#x201e;" 
d="M0 -682h342v340h-342v-340zM1024 -682h342v340h-342v-340zM342 -342h340v1024h-682v-682h342v-342zM1366 -342h340v1024h-682v-682h342v-342z" />
    <glyph glyph-name="ellipsis" unicode="&#x2026;" 
d="M0 0h342v342h-342v-342zM682 0h342v342h-342v-342zM1366 0h340v342h-340v-342z" />
    <glyph glyph-name="guilsinglleft" unicode="&#x2039;" horiz-adv-x="1363" 
d="M682 -342h342v684h-342v-684zM342 342h340v682h-340v-682zM0 1024h342v682h-342v-682zM342 1706h340v684h-340v-684zM682 2390h342v682h-342v-682z" />
    <glyph glyph-name="guilsinglright" unicode="&#x203a;" horiz-adv-x="1363" 
d="M0 -342h342v684h-342v-684zM342 342h340v682h-340v-682zM682 1024h342v682h-342v-682zM342 1706h340v684h-340v-684zM0 2390h342v682h-342v-682z" />
    <glyph glyph-name="arrowleft" unicode="&#x2190;" horiz-adv-x="2387" 
d="M682 342h342v682h1024v682h-1024v684h-342v-342h-340v-342h-342v-682h342v-342h340v-340z" />
    <glyph glyph-name="arrowup" unicode="&#x2191;" horiz-adv-x="2387" 
d="M682 342h684v1024h682v340h-342v342h-340v342h-684v-342h-340v-342h-342v-340h682v-1024z" />
    <glyph glyph-name="arrowright" unicode="&#x2192;" horiz-adv-x="2387" 
d="M1024 342h342v340h340v342h342v682h-342v342h-340v342h-342v-684h-1024v-682h1024v-682z" />
    <glyph glyph-name="arrowdown" unicode="&#x2193;" horiz-adv-x="2387" 
d="M682 342h684v340h340v342h342v342h-682v1024h-684v-1024h-682v-342h342v-342h340v-340z" />
    <glyph glyph-name="uni25AF" unicode="&#x25af;" 
d="M1366 -342h-1024v3756h1024v-3756zM0 -682h1706v4436h-1706v-4436z" />
    <glyph glyph-name="uni25B6" unicode="&#x25b6;" horiz-adv-x="2729" 
d="M682 0h340v342h342v340h342v342h340v342h342v340h-342v342h-340v342h-342v340h-342v342h-340v-3072z" />
    <glyph glyph-name="uni25C0" unicode="&#x25c0;" horiz-adv-x="2729" 
d="M2046 0h342v3072h-342v-342h-340v-340h-342v-342h-342v-342h-340v-340h340v-342h342v-342h342v-340h340v-342z" />
    <glyph glyph-name="female" unicode="&#x2640;" 
d="M682 0h342v1024h682v342h-682v340h342v342h-1024v-342h340v-340h-682v-342h682v-1024zM0 2048h342v1024h-342v-1024zM1366 2048h340v1024h-340v-1024zM342 3072h1024v342h-1024v-342z" />
    <glyph glyph-name="male" unicode="&#x2642;" 
d="M342 0h1024v342h-1024v-342zM0 342h342v1024h-342v-1024zM1366 342h340v1024h-340v-1024zM0 2390h342v340h-342v-340zM1366 2390h340v340h-340v-340zM342 1366h1024v340h-342v1024h342v342h-342v342h-342v-342h-340v-342h340v-1024h-340v-340z" />
    <glyph glyph-name="uniE068" unicode="&#xe068;" horiz-adv-x="2729" 
d="M342 2048h1024v342h-1024v-342zM0 2390h342v340h1024v684h-342v-342h-682v342h-342v-1024zM342 3414h682v340h-682v-340zM1706 2048h342v1024h342v342h-342v340h-342v-1706zM2390 3414h340v340h-340v-340z" />
    <glyph glyph-name="uniE069" unicode="&#xe069;" horiz-adv-x="2729" 
d="M1366 2048h1024v342h-1024v-342zM1024 2390h342v340h1024v684h-342v-342h-682v342h-342v-1024zM0 2048h342v1024h340v342h-340v340h-342v-1706zM682 3414h342v340h-342v-340zM1366 3414h682v340h-682v-340z" />
  </font>
</defs>
</svg>
